<mxfile host="app.diagrams.net" modified="2023-06-09T10:37:20.430Z" agent="Mozilla/5.0 (Macintosh; Intel Mac OS X 10_15_7) AppleWebKit/537.36 (KHTML, like Gecko) Chrome/114.0.0.0 Safari/537.36" version="21.3.8" etag="Zf2jLeWaGMJ50NL0CdC2" type="github">
  <diagram name="Page-1" id="M0fCaw6D6BNEBpHjXU42">
    <mxGraphModel>
      <root>
        <mxCell id="0" />
        <mxCell id="1" parent="0" />
      </root>
    </mxGraphModel>
  </diagram>
</mxfile>
